<svg width="31" height="31" viewBox="0 0 31 31" fill="none" xmlns="http://www.w3.org/2000/svg">
<path d="M15.2653 0.259186C12.2046 0.259186 9.35501 1.15858 6.96427 2.70652H15.2653C22.3503 2.70652 28.1138 8.46998 28.1138 15.555C28.1138 22.64 22.3503 28.4035 15.2653 28.4035C11.3205 28.4035 7.78719 26.6154 5.42704 23.8071C9.40242 23.8071 15.9888 23.8071 17.1069 23.8071V21.3598H1.11057C1.46237 22.2179 1.88912 23.0362 2.38471 23.8071C5.1043 28.044 9.85671 30.8508 15.2653 30.8508C23.7132 30.8508 30.5611 24.0029 30.5611 15.555C30.5611 7.10712 23.7132 0.259186 15.2653 0.259186Z" fill="#F7F8F9"/>
<path d="M14.6596 14.3391C14.6596 14.3391 0.0168945 14.3437 0.0168945 14.3452C0.00312827 14.5242 -0.0136971 16.3811 0.0184241 16.7864C1.45623 16.7864 12.9281 16.7864 14.6596 16.7864V14.3391Z" fill="#F7F8F9"/>
<path d="M17.1069 7.30304H2.38471C1.88759 8.07854 1.46084 8.89839 1.11057 9.75037C2.69521 9.75037 15.2041 9.75037 17.1069 9.75037V7.30304Z" fill="#F7F8F9"/>
</svg>
