<svg width="200" height="200" viewBox="0 0 200 200" fill="none" xmlns="http://www.w3.org/2000/svg"><script xmlns="" type="text/javascript"/>
<g clip-path="url(#clip0_9517_4671)">
<circle cx="100" cy="100" r="100" fill="#4592C1"/>
<path d="M175.095 200H0V25.8883C10.112 15.7763 15.7763 10.112 25.8883 0H200V175.095C190.267 184.82 184.82 190.267 175.095 200Z" fill="#4592C1"/>
<path fill-rule="evenodd" clip-rule="evenodd" d="M17.7481 124.171C15.26 128.998 19.3417 134.519 24.7469 133.988C66.3309 129.907 91.0588 137.723 91.0588 137.723C91.0588 137.723 123.442 146.928 154.601 162.893C159.296 165.298 164.99 161.927 164.738 156.657C162.375 107.219 148.142 59.0191 123.171 16.1717C122.691 15.3519 122.046 14.6408 121.277 14.0836C120.508 13.5263 119.631 13.1349 118.703 12.9343C117.775 12.7336 116.815 12.728 115.884 12.9178C114.954 13.1076 114.073 13.4887 113.297 14.0369C73.055 42.6062 40.3088 80.3949 17.7481 124.171ZM119.006 123.674C126.473 118.834 131.728 111.227 133.623 102.519C136.11 91.0134 134.845 77.5535 130.156 65.5768C130.122 65.4966 130.087 65.4137 130.053 65.3297C130.028 65.2691 130.002 65.2079 129.976 65.1465C129.889 64.9312 129.755 64.7387 129.582 64.5835C129.41 64.4283 129.205 64.3146 128.982 64.251C128.759 64.1873 128.524 64.1755 128.296 64.2162C128.068 64.257 127.852 64.3493 127.665 64.4863L110.571 76.9673L118.264 80.5052C118.967 80.8527 119.509 81.4583 119.778 82.1964C120.047 82.9344 120.022 83.7484 119.709 84.4695L102.776 98.4348C102.494 99.0827 101.998 99.6132 101.371 99.9365C100.745 100.26 100.026 100.356 99.3371 100.208C99.134 100.166 98.9358 100.102 98.7461 100.018C98.0041 99.6947 97.4207 99.0893 97.1243 98.3345C96.8279 97.5797 96.8428 96.7374 97.1657 95.9929L112.001 84.5018L103.324 80.2187C102.854 79.985 102.452 79.6335 102.158 79.1983C101.863 78.7631 101.685 78.2589 101.641 77.7344C101.598 77.2098 101.69 76.6827 101.909 76.204C102.128 75.7253 102.466 75.3112 102.891 75.0017L125.33 58.6271C125.642 58.4006 125.857 58.0644 125.932 57.6858C126.007 57.3072 125.937 56.9143 125.736 56.5857C121.662 49.9593 116.751 45.6409 111.811 44.573C104.888 43.0764 95.3962 47.4001 86.4105 56.131C77.7547 64.5456 71.3077 75.4143 68.4952 86.2391C63.6239 104.999 74.882 124.31 93.7774 128.348C102.468 130.195 111.539 128.514 119.006 123.674Z" fill="white"/>
</g>
<defs>
<clipPath id="clip0_9517_4671">
<rect width="200" height="200" rx="100" fill="white"/>
</clipPath>
</defs>
</svg>