<?xml version="1.0" encoding="UTF-8"?><svg id="Layer_2" xmlns="http://www.w3.org/2000/svg" viewBox="0 0 31 31"><g id="Layer_1-2"><g><g><path d="m15.48.26c-3.06,0-5.91.9-8.3,2.45h8.3c7.09,0,12.85,5.76,12.85,12.85s-5.76,12.85-12.85,12.85c-3.94,0-7.48-1.79-9.84-4.6h11.68v-2.45H1.33c.35.86.78,1.68,1.27,2.45,2.72,4.24,7.47,7.04,12.88,7.04,8.45,0,15.3-6.85,15.3-15.3S23.93.26,15.48.26Z" style="fill:#e8ec54;"/><path d="m14.88,14.34s-14.64,0-14.64,0c-.01.18-.03,2.04,0,2.44h14.64v-2.45Z" style="fill:#e8ec54;"/><path d="m17.33,7.3H2.6c-.5.78-.92,1.6-1.27,2.45h16v-2.45Z" style="fill:#e8ec54;"/></g><rect width="31" height="31" style="fill:none;"/></g></g></svg>