<?xml version="1.0" encoding="utf-8"?>
<!-- Generator: Adobe Illustrator 27.1.1, SVG Export Plug-In . SVG Version: 6.00 Build 0)  -->
<svg version="1.1" id="Layer_1" xmlns="http://www.w3.org/2000/svg" xmlns:xlink="http://www.w3.org/1999/xlink" x="0px" y="0px"
	 viewBox="0 0 118.9 118.9" style="enable-background:new 0 0 118.9 118.9;" xml:space="preserve">
<style type="text/css">
	.st0{fill:url(#SVGID_1_);}
	.st1{fill:url(#SVGID_00000168084741355710654850000012753714942484595896_);}
</style>
<linearGradient id="SVGID_1_" gradientUnits="userSpaceOnUse" x1="832.5901" y1="-414.0607" x2="995.7717" y2="-250.8791" gradientTransform="matrix(0.5128 0 0 -0.5128 -388.4919 -89.6698)">
	<stop  offset="0" style="stop-color:#B090F5"/>
	<stop  offset="1" style="stop-color:#5FBFFF"/>
</linearGradient>
<path class="st0" d="M111.1,30l-2.6-4.5c-0.7-1.3-2.3-1.7-3.6-1c-0.2,0.1-0.4,0.3-0.6,0.4l-5.9,5.9c-0.9,0.9-1,2.3-0.3,3.3
	c2.2,3.3,3.9,6.8,5.1,10.6l0,0c8.2,24.2-4.9,50.4-29.1,58.6c-4.8,1.6-9.7,2.4-14.8,2.4c-7.6,0-15-1.8-21.7-5.4l10-10
	c17.1,6.5,36.1-2.1,42.6-19.2c3.2-8.5,2.8-17.9-1.2-26.1c-0.6-1.3-2.2-1.9-3.5-1.2c-0.3,0.1-0.5,0.3-0.7,0.5l-6,5.9
	c-0.6,0.6-0.9,1.6-0.7,2.5l0.5,2.1c2.5,10.7-4.1,21.3-14.8,23.8c-4.9,1.1-10,0.4-14.3-2.1L47,75.1c-1-0.6-2.3-0.4-3.2,0.4L19.5,99.9
	c-1,1-1,2.7,0,3.7c0.1,0.1,0.2,0.2,0.3,0.2l3.6,2.8c10.4,8,23.1,12.3,36.1,12.2c32.9,0,59.5-26.7,59.4-59.6
	C118.8,49,116.2,38.9,111.1,30z"/>
<linearGradient id="SVGID_00000101070986179054419250000006060205965902069941_" gradientUnits="userSpaceOnUse" x1="751.1288" y1="-330.6716" x2="914.3332" y2="-167.4773" gradientTransform="matrix(0.5128 0 0 -0.5128 -388.4919 -89.6698)">
	<stop  offset="0" style="stop-color:#68D7FA"/>
	<stop  offset="1" style="stop-color:#4EE498"/>
</linearGradient>
<path style="fill:url(#SVGID_00000101070986179054419250000006060205965902069941_);" d="M95.6,12.3C85.2,4.3,72.5,0,59.4,0
	C26.6,0,0,26.7,0,59.5C0,69.8,2.7,80,7.8,88.9l2.6,4.5c0.7,1.3,2.3,1.7,3.6,1c0.2-0.1,0.4-0.3,0.6-0.4l5.9-5.9
	c0.9-0.9,1-2.3,0.3-3.3c-2.2-3.3-3.9-6.8-5.1-10.6l0,0C7.5,50,20.5,23.8,44.7,15.6c4.8-1.6,9.7-2.4,14.8-2.4c7.6,0,15,1.8,21.7,5.4
	l-10,10C54.1,22.1,35,30.7,28.5,47.7c-1.4,3.7-2.1,7.7-2.1,11.7c0,0.5,0.1,3.1,0.2,3.5c0.4,3.8,1.5,7.5,3.1,10.9
	c0.6,1.3,2.2,1.9,3.5,1.2c0.3-0.1,0.5-0.3,0.7-0.5l6-6c0.6-0.6,0.9-1.6,0.7-2.5L40.1,64c-2.5-10.6,4.1-21.3,14.7-23.8
	c4.9-1.1,10-0.4,14.4,2.1l2.6,1.5c1,0.6,2.3,0.4,3.2-0.4L99.4,19c1-1,1-2.7,0-3.7c-0.1-0.1-0.2-0.2-0.3-0.2L95.6,12.3z"/>
</svg>
