<?xml version="1.0" encoding="UTF-8"?>
<svg id="Capa_2" data-name="Capa 2" xmlns="http://www.w3.org/2000/svg" viewBox="0 0 209.78 209.78">
  <defs>
    <style>
      .cls-1 {
        fill: #fff;
      }

      .cls-2 {
        fill: #e84142;
      }
    </style>
  </defs>
  <g id="Capa_1-2" data-name="Capa 1">
    <g>
      <circle class="cls-2" cx="104.89" cy="104.89" r="104.89"/>
      <path class="cls-1" d="M137,88.86c-1.3-1.81-3.96-2.18-6.06-1.45s-3.79,2.31-5.4,3.84l-.16-.09c3.07-4.99,4.84-10.77,5.12-16.62.79-.33,1.39-1.05,1.54-1.9.13-.75-.12-1.54-.62-2.12.32-.24.58-.53.76-.87.37-.72.34-1.59-.08-2.23-.45-.67-1.31-1.06-2.25-1-.02,0-.04,0-.06,0-.38-1.13-.99-2.13-2.03-2.66-1.61-.84-3.58-.21-5.2.62-5.93,3.02-10.48,8.65-12.19,15.09h-.23c.25-7.3-.64-14.63-2.61-21.66-.55-1.96-1.36-4.12-3.21-5-1.38-.66-3.07-.43-4.4.32-1.34.74-2.37,1.93-3.25,3.19-2.74,3.92-4.17,8.65-4.68,13.41-.51,4.75-.13,9.55.48,14.29-2.15-5.86-5.06-11.45-8.62-16.59-1.14-1.64-2.88-3.44-4.8-2.89-1.78.51-2.4,2.69-2.61,4.53-1.53,13.27,2.85,26.58,8.95,38.46l.26.1c-.11.28-.22.57-.33.86-.76,1.99-1.44,4-2.06,6.04-1.21,0-2.45.3-3.59.7-1.13.4-2.23.89-3.29,1.43-1.07.54-2.11,1.13-3.14,1.75-1,.59-1.77,1.09-.77,2.12.77.8,1.61,1.56,2.48,2.25.96.76,2,1.44,3.13,1.95.78.35,1.61.6,2.46.75-1.97,10.17-2.53,20.64-1.98,31l-.02.11c16.83,2.66,34.63-1.47,48.57-11.27l.26-.07c-2.95-11.25-4.76-22.79-5.39-34.4,6.1-3.32,11.18-8.48,14.42-14.63,1.21-2.3,2.12-5.25.6-7.36ZM130.87,72.43c-.04.24-.17.47-.34.66,0-.61,0-1.22-.04-1.83.29.31.45.76.37,1.17ZM131.1,68.07c.18.27.19.7.02,1.03-.14.27-.41.5-.73.65-.03-.36-.07-.73-.12-1.09-.04-.35-.1-.71-.17-1.06.44.02.82.19,1.01.47Z"/>
    </g>
  </g>
</svg>